<?xml version="1.0" standalone="no"?>
<!DOCTYPE svg PUBLIC "-//W3C//DTD SVG 20010904//EN"
 "http://www.w3.org/TR/2001/REC-SVG-20010904/DTD/svg10.dtd">
<svg version="1.0" xmlns="http://www.w3.org/2000/svg"
 width="800.000000pt" height="800.000000pt" viewBox="0 0 800.000000 800.000000"
 preserveAspectRatio="xMidYMid meet">
<metadata>
Created by potrace 1.11, written by Peter Selinger 2001-2013
</metadata>
<g transform="translate(0.000000,800.000000) scale(0.100000,-0.100000)"
fill="#000000" stroke="none">
<path d="M877 5952 l-37 -38 0 -370 0 -370 38 -37 38 -37 512 0 512 0 0 -1508
0 -1508 38 -37 38 -37 420 0 420 0 37 38 37 38 0 1507 0 1507 513 0 513 0 32
33 32 33 0 380 0 380 -33 32 -33 32 -1520 0 -1520 0 -37 -38z"/>
<path d="M4627 5952 l-37 -38 0 -1915 0 -1915 38 -37 38 -37 1205 0 1205 0 37
38 37 38 0 390 0 390 -38 37 -38 37 -747 0 -747 0 0 1493 0 1493 -33 32 -33
32 -425 0 -425 0 -37 -38z"/>
</g>
</svg>
